<?xml version="1.0" encoding="UTF-8" standalone="no"?>
<!-- Created with Inkscape (http://www.inkscape.org/) -->

<svg
   width="85"
   height="85"
   viewBox="0 0 22.489583 22.489583"
   version="1.1"
   id="svg1137"
   inkscape:version="1.2.2 (732a01da63, 2022-12-09)"
   sodipodi:docname="attention.svg"
   xmlns:inkscape="http://www.inkscape.org/namespaces/inkscape"
   xmlns:sodipodi="http://sodipodi.sourceforge.net/DTD/sodipodi-0.dtd"
   xmlns="http://www.w3.org/2000/svg"
   xmlns:svg="http://www.w3.org/2000/svg">
  <sodipodi:namedview
     id="namedview1139"
     pagecolor="#ffffff"
     bordercolor="#000000"
     borderopacity="0.25"
     inkscape:showpageshadow="2"
     inkscape:pageopacity="0.0"
     inkscape:pagecheckerboard="0"
     inkscape:deskcolor="#d1d1d1"
     inkscape:document-units="mm"
     showgrid="false"
     inkscape:zoom="0.78127806"
     inkscape:cx="-266.87042"
     inkscape:cy="-10.239632"
     inkscape:window-width="1920"
     inkscape:window-height="1017"
     inkscape:window-x="-8"
     inkscape:window-y="568"
     inkscape:window-maximized="1"
     inkscape:current-layer="layer1" />
  <defs
     id="defs1134" />
  <g
     inkscape:label="Layer 1"
     inkscape:groupmode="layer"
     id="layer1"
     transform="translate(-126.25855,-151.29386)">
    <g
       id="g1185"
       transform="translate(0.00961099,3.7096844)">
      <path
         d="m 148.65068,158.81609 c -0.58208,-4.39208 -5.63563,-6.93208 -9.8425,-3.91583 0,0 -1.5875,-3.46604 -5.63563,-3.59833 -4.04812,-0.15875 -6.56166,2.03729 -6.87916,5.42396 -0.3175,3.38666 1.56104,6.27062 4.57729,6.93208 3.01625,0.66146 5.50333,-0.68792 5.84729,-1.03188 0,0 1.42875,3.54542 5.47688,3.73063 4.04812,0.18521 7.06437,-3.14854 6.45583,-7.54063 z m -5.63563,6.11188 c -3.59833,0.29104 -4.92125,-3.28083 -4.92125,-3.28083 -0.15875,-0.34396 -0.68791,-1.27 -1.40229,-0.71438 -0.71437,0.55563 -1.69333,1.56104 -4.02166,1.45521 -2.30188,-0.0794 -4.5773,-1.98438 -4.68313,-4.47146 -0.10583,-2.48708 1.45521,-5.18583 4.81542,-5.15937 3.36021,0.0265 4.31271,2.61937 4.81541,3.81 0.50271,1.19062 1.56105,0.0794 1.56105,0.0794 1.1377,-1.87854 5.23875,-2.19604 7.38187,0.58208 2.14313,2.77813 0.0529,7.40834 -3.54542,7.69938 z"
         id="path459"
         style="stroke-width:0.264583" />
      <path
         d="m 129.9711,158.02234 c 0,0 0.76729,1.77271 2.4077,2.11667 1.64042,0.34396 2.59292,-0.74083 3.01625,-1.29646 0.39688,-0.55562 1.11125,-0.15875 0.9525,0.44979 -0.15875,0.60855 -1.56104,2.38125 -3.91583,1.905 -2.35479,-0.47625 -3.28083,-2.19604 -3.36021,-2.80458 -0.0794,-0.60854 0.58209,-0.92604 0.89959,-0.37042 z"
         id="path461"
         style="stroke-width:0.264583" />
      <path
         d="m 132.0613,155.03255 c 0,0 -0.0529,1.03188 -0.0529,1.5875 0,0.55563 -0.84667,0.74084 -0.97896,-0.0794 -0.10583,-0.82021 -0.0529,-1.98438 0.50271,-2.01084 0.55562,-0.0265 0.52916,0.50271 0.52916,0.50271 z"
         id="path463"
         style="stroke-width:0.264583" />
      <path
         d="m 135.42151,155.8263 c 0,0 -0.0529,1.03188 -0.23812,1.5875 -0.18521,0.52917 -0.9525,0.34396 -0.92604,-0.0794 0.0265,-0.42334 0.0529,-1.98438 0.37041,-2.2225 0.34396,-0.26459 0.87313,-0.0265 0.79375,0.71437 z"
         id="path465"
         style="stroke-width:0.264583" />
      <path
         d="m 140.10464,157.81068 c 0,0 1.21708,1.56104 2.8575,1.61396 1.64041,0.0529 2.16958,-1.13771 2.75166,-1.16417 0.58209,-0.0265 0.82021,0.66146 0.47625,1.16417 -0.37041,0.5027 -1.7727,1.27 -3.88937,1.03187 -2.11667,-0.23812 -2.98979,-1.13771 -3.22792,-1.98437 -0.29104,-0.87313 0.42334,-1.29646 1.03188,-0.66146 z"
         id="path467"
         style="stroke-width:0.264583" />
      <path
         d="m 141.53339,160.03318 c 0,0 0.34396,1.98437 -0.44979,1.79916 -0.79375,-0.1852 -0.68792,-2.06375 -0.23813,-2.19604 0.47625,-0.15875 0.68792,0.39688 0.68792,0.39688 z"
         id="path469"
         style="stroke-width:0.264583" />
      <path
         d="m 144.8936,159.9538 c 0,0 0.58208,1.79917 -0.1323,2.09021 -0.71437,0.29104 -0.84666,-1.45521 -0.52916,-2.09021 0.34396,-0.60854 0.66146,0 0.66146,0 z"
         id="path471"
         style="stroke-width:0.264583" />
    </g>
  </g>
</svg>
