<?xml version="1.0" encoding="UTF-8" standalone="no"?>
<!-- Created with Inkscape (http://www.inkscape.org/) -->

<svg
   width="85"
   height="85"
   viewBox="0 0 22.489583 22.489582"
   version="1.1"
   id="svg932"
   inkscape:version="1.2.2 (732a01da63, 2022-12-09)"
   sodipodi:docname="bathroom.svg"
   xmlns:inkscape="http://www.inkscape.org/namespaces/inkscape"
   xmlns:sodipodi="http://sodipodi.sourceforge.net/DTD/sodipodi-0.dtd"
   xmlns="http://www.w3.org/2000/svg"
   xmlns:svg="http://www.w3.org/2000/svg">
  <sodipodi:namedview
     id="namedview934"
     pagecolor="#ffffff"
     bordercolor="#000000"
     borderopacity="0.25"
     inkscape:showpageshadow="2"
     inkscape:pageopacity="0.0"
     inkscape:pagecheckerboard="0"
     inkscape:deskcolor="#d1d1d1"
     inkscape:document-units="mm"
     showgrid="false"
     inkscape:zoom="0.78127806"
     inkscape:cx="-408.94531"
     inkscape:cy="-291.82952"
     inkscape:window-width="1920"
     inkscape:window-height="1017"
     inkscape:window-x="-8"
     inkscape:window-y="568"
     inkscape:window-maximized="1"
     inkscape:current-layer="layer1" />
  <defs
     id="defs929" />
  <g
     inkscape:label="Layer 1"
     inkscape:groupmode="layer"
     id="layer1"
     transform="translate(-163.86643,-225.77872)">
    <g
       id="g980"
       transform="translate(0.36549756,2.3359455)">
      <path
         d="m 170.37109,233.64465 c -0.71437,-1.69333 -3.36021,-2.69875 -4.57729,-1.24354 0,0 -2.16958,2.06375 -1.905,3.46604 0.26458,1.40229 2.30187,1.03188 3.73062,0.76729 1.42875,-0.29104 3.4925,-1.29646 2.75167,-2.98979 z m -1.45521,0.92604 c -0.42333,0.635 -3.14854,1.45521 -3.4925,0.74084 -0.37041,-0.68792 1.77271,-2.69875 2.16959,-2.43417 -0.0265,0.0265 1.74625,1.08479 1.32291,1.69333 z"
         id="path429"
         style="stroke-width:0.264583" />
      <path
         d="m 169.2863,235.65548 c 0,0 -2.14313,1.98438 -1.08479,3.96875 1.08479,1.98438 6.13833,3.09563 10.29229,1.56105 4.15396,-1.50813 5.23875,-4.47146 4.81542,-6.64105 -0.42334,-2.16958 -0.29105,-3.43958 0,-4.18041 0.29104,-0.74084 -0.58209,-1.40229 -1.32292,-1.08479 -0.74083,0.3175 -1.93146,0.9525 -4.33917,0.9525 -2.40771,0 -3.57187,-0.58209 -3.75708,-0.97896 -0.18521,-0.39688 -0.37042,-1.69334 -2.80458,-1.66688 -2.40771,0.0265 -4.15396,2.09021 -3.38667,4.39209 l -1.53458,0.47625 c 0,0 -0.66146,-4.28625 2.0902,-5.90021 2.75167,-1.64042 5.66209,-0.26459 6.4823,0.37041 0.8202,0.635 0.87312,1.85209 1.29645,2.01084 0.42334,0.15875 2.72521,-0.0794 4.41855,-0.97896 1.69333,-0.89958 3.62479,-0.44979 4.41854,0.10583 0.79375,0.55563 1.00541,1.32292 0.42333,2.06375 -0.58208,0.74084 -0.74083,1.69334 -0.50271,3.46604 0.23813,1.74625 0.23813,6.05896 -2.98979,8.20209 -3.22792,2.14312 -10.58333,2.43416 -13.57312,0.55562 -2.9898,-1.87854 -2.38125,-5.15937 -1.27,-5.95312 1.11125,-0.79375 2.32833,-0.74084 2.32833,-0.74084 z"
         id="path431"
         style="stroke-width:0.264583" />
      <path
         d="m 173.78422,230.33736 c 0,0 1.29645,0.39687 2.11666,0.76729 0.82021,0.37042 0.71438,1.34938 -0.0529,1.61396 -0.7673,0.26458 -2.43417,-0.18521 -2.96334,-0.68792 -0.52916,-0.50271 -0.21166,-2.06375 0.89959,-1.69333 z"
         id="path433"
         style="stroke-width:0.264583" />
      <path
         d="m 171.29713,231.31632 c 0,0 -0.23812,0.89958 -0.68791,0.71437 -0.4498,-0.15875 -0.52917,-1.56104 0.21166,-1.48166 0.74084,0.0794 0.47625,0.76729 0.47625,0.76729 z"
         id="path435"
         style="stroke-width:0.264583" />
      <path
         d="m 169.63026,230.46965 c 0,0 -0.23813,0.89958 -0.68792,0.71438 -0.44979,-0.15875 -0.52917,-1.56105 0.21167,-1.48167 0.74083,0.0794 0.47625,0.76729 0.47625,0.76729 z"
         id="path437"
         style="stroke-width:0.264583" />
      <path
         d="m 175.50401,229.78173 c 0,0 1.29646,0.68792 1.905,1.905 0,0 1.79916,-0.13229 2.27541,0.79375 0.47625,0.92605 0.52917,2.27542 -1.16416,3.04271 -1.69334,0.76729 -3.96875,0.82021 -4.55084,0.21167 -0.58208,-0.60854 0.42334,-2.06375 0.34396,-2.27542 -0.0794,-0.18521 -1.32291,-0.66146 -1.79916,-0.42333 -0.47625,0.23812 -1.13771,2.98979 0.15875,3.99521 1.29645,1.00541 6.19125,0.74083 8.14916,-1.11125 1.95792,-1.85209 0.47625,-5.29167 -1.13771,-5.29167 0,0 -0.5027,-0.71437 -1.4552,-0.84667 -0.97896,-0.0794 -2.72521,0 -2.72521,0 z"
         id="path439"
         style="stroke-width:0.264583" />
      <path
         d="m 166.4288,227.29465 c 0,0 -0.9525,1.34938 -0.87313,2.46063 0,0 -1.24354,-0.42334 -0.84666,-1.7198 0.39687,-1.32291 1.71979,-0.74083 1.71979,-0.74083 z"
         id="path473"
         style="stroke-width:0.264583" />
    </g>
  </g>
</svg>
