<?xml version="1.0" encoding="UTF-8" standalone="no"?>
<!-- Created with Inkscape (http://www.inkscape.org/) -->

<svg
   width="90"
   height="90"
   viewBox="0 0 23.8125 23.8125"
   version="1.1"
   id="svg543"
   inkscape:version="1.2.2 (732a01da63, 2022-12-09)"
   sodipodi:docname="food.svg"
   xmlns:inkscape="http://www.inkscape.org/namespaces/inkscape"
   xmlns:sodipodi="http://sodipodi.sourceforge.net/DTD/sodipodi-0.dtd"
   xmlns="http://www.w3.org/2000/svg"
   xmlns:svg="http://www.w3.org/2000/svg">
  <sodipodi:namedview
     id="namedview545"
     pagecolor="#ffffff"
     bordercolor="#000000"
     borderopacity="0.25"
     inkscape:showpageshadow="2"
     inkscape:pageopacity="0.0"
     inkscape:pagecheckerboard="0"
     inkscape:deskcolor="#d1d1d1"
     inkscape:document-units="mm"
     showgrid="false"
     inkscape:zoom="4.4195761"
     inkscape:cx="-45.818874"
     inkscape:cy="76.704189"
     inkscape:window-width="1920"
     inkscape:window-height="1017"
     inkscape:window-x="-8"
     inkscape:window-y="568"
     inkscape:window-maximized="1"
     inkscape:current-layer="layer1" />
  <defs
     id="defs540" />
  <g
     inkscape:label="Layer 1"
     inkscape:groupmode="layer"
     id="layer1"
     transform="translate(-90.925097,-113.60425)">
    <g
       id="g589"
       transform="translate(4.2828885,2.9175718)">
      <path
         d="m 92.580703,114.87555 c 0,0 0.238125,1.74625 0.555625,2.43416 0.3175,0.68792 0.926042,0.55563 0.978958,-0.18521 0.05292,-0.74083 -0.05292,-3.33375 0.449792,-3.41312 0.47625,-0.0794 0.79375,0.66146 0.899583,1.64042 0.105833,0.97895 0.02646,1.74625 0.07937,2.4077 0.05292,0.66146 1.058333,0.82021 1.190625,-0.10583 0.132292,-0.92604 -0.370417,-2.35479 0,-3.20146 0.370417,-0.84666 1.455208,-0.92604 1.719792,-0.0529 0.264583,0.87312 0.238125,2.61937 0.3175,3.57187 0.07937,0.9525 -0.07937,2.54 -0.79375,3.46604 -0.740834,0.92604 -1.666875,1.32292 -1.640417,2.16959 0.02646,0.84666 0.740833,2.93687 1.11125,4.18041 0.370417,1.24354 0.502708,3.62479 -1.534583,3.78354 -2.037292,0.15875 -3.598333,-1.4552 -3.33375,-2.88395 0.264583,-1.4023 1.190625,-3.88938 1.296458,-4.92125 0.105834,-1.03188 -1.931458,-1.98438 -2.275416,-3.38667 -0.343959,-1.40229 -0.899584,-5.23875 -0.582084,-5.95313 0.3175,-0.71437 1.375834,-0.71437 1.561042,0.4498 z"
         id="path379"
         style="stroke-width:0.264583" />
      <path
         d="m 105.96862,116.38367 c 0,0 0.3175,12.91167 0.15875,14.02292 -0.15875,1.08479 -1.85208,1.56104 -3.22792,0.74083 -1.37583,-0.82021 -0.0265,-3.38667 0.18521,-4.33917 0.21167,-0.9525 -2.32833,-1.4552 -2.51354,-2.4077 -0.18521,-0.9525 0.66146,-8.17563 1.66687,-9.78959 0.97896,-1.5875 3.65125,-1.50812 3.73063,1.77271 z"
         id="path381"
         style="stroke-width:0.264583" />
    </g>
  </g>
</svg>
