<?xml version="1.0" encoding="UTF-8" standalone="no"?>
<!-- Created with Inkscape (http://www.inkscape.org/) -->

<svg
   width="85"
   height="85"
   viewBox="0 0 22.489584 22.489584"
   version="1.1"
   id="svg758"
   inkscape:version="1.2.2 (732a01da63, 2022-12-09)"
   sodipodi:docname="game.svg"
   xmlns:inkscape="http://www.inkscape.org/namespaces/inkscape"
   xmlns:sodipodi="http://sodipodi.sourceforge.net/DTD/sodipodi-0.dtd"
   xmlns="http://www.w3.org/2000/svg"
   xmlns:svg="http://www.w3.org/2000/svg">
  <sodipodi:namedview
     id="namedview760"
     pagecolor="#ffffff"
     bordercolor="#000000"
     borderopacity="0.25"
     inkscape:showpageshadow="2"
     inkscape:pageopacity="0.0"
     inkscape:pagecheckerboard="0"
     inkscape:deskcolor="#d1d1d1"
     inkscape:document-units="mm"
     showgrid="false"
     inkscape:zoom="3.1251122"
     inkscape:cx="23.839144"
     inkscape:cy="90.556748"
     inkscape:window-width="1920"
     inkscape:window-height="1017"
     inkscape:window-x="-8"
     inkscape:window-y="568"
     inkscape:window-maximized="1"
     inkscape:current-layer="layer1" />
  <defs
     id="defs755" />
  <g
     inkscape:label="Layer 1"
     inkscape:groupmode="layer"
     id="layer1"
     transform="translate(-59.975568,-110.90602)">
    <g
       id="g801"
       transform="translate(0.78022272,2.2671208)">
      <path
         d="m 65.405573,114.87512 c 0,0 0.343958,-0.10584 0.502708,-0.42334 0.15875,-0.3175 0.132292,-0.635 -0.105833,-0.74083 -0.238125,-0.10583 -0.449792,-0.13229 -0.529167,0.29104 -0.07937,0.42334 -0.07937,0.97896 0.132292,0.87313 z"
         id="path411"
         style="stroke-width:0.264583" />
      <path
         d="m 63.341823,113.94908 c 0,0 0.582083,-0.26459 0.740833,0.1852 0.15875,0.4498 -0.15875,0.97896 -0.608542,0.74084 -0.449791,-0.21167 -0.449791,-0.79375 -0.132291,-0.92604 z"
         id="path413"
         style="stroke-width:0.264583" />
      <path
         d="m 63.474114,115.48366 c 0,0 -0.3175,0.26458 -0.449791,0.50271 -0.132292,0.23812 0.105833,0.82021 0.608541,0.50271 0.502709,-0.3175 0.529167,-0.74084 0.291042,-1.03188 -0.264583,-0.23812 -0.449792,0.0265 -0.449792,0.0265 z"
         id="path415"
         style="stroke-width:0.264583" />
      <path
         d="m 65.035156,115.69533 c 0,0 -0.105833,0.68791 0.3175,0.79375 0.449792,0.10583 0.529167,-0.3175 0.343958,-0.68792 -0.185208,-0.37042 -0.661458,-0.44979 -0.661458,-0.10583 z"
         id="path417"
         style="stroke-width:0.264583" />
      <path
         d="m 68.924531,114.66345 c -0.15875,-2.19604 -2.169583,-3.73062 -4.153958,-3.75708 -1.984375,-0.0265 -3.545417,1.48166 -3.545417,1.48166 -0.3175,0.37042 -1.455208,1.61396 -1.217083,3.3073 0.238125,1.66687 1.455208,3.96875 4.497916,3.94229 3.042709,-0.0265 4.577292,-2.77813 4.418542,-4.97417 z m -1.137708,0.82021 c -0.07937,1.24354 -1.190625,2.14312 -1.190625,2.14312 0,0 -0.687917,-0.68791 -0.79375,-0.44979 -0.105834,0.23813 -0.185209,1.05834 -0.185209,1.05834 0,0 -0.238125,0.1852 -1.164166,0.13229 -0.926042,-0.0529 -1.5875,-0.58209 -1.5875,-0.58209 0,0 0.185208,-0.84666 0,-0.84666 -0.185209,0 -0.9525,0.29104 -0.9525,0.29104 0,0 -0.502709,-0.47625 -0.635,-1.64042 -0.105834,-1.13771 0.767291,-1.98437 0.767291,-1.98437 0,0 0.714375,0.0529 0.926042,-0.15875 0.185208,-0.18521 0.15875,-0.92604 0.15875,-0.92604 0,0 0.635,-0.39688 1.561042,-0.4498 0.926041,-0.0529 1.613958,0.635 1.613958,0.635 0,0 -0.185208,0.60855 0.02646,0.635 0.211667,0.0529 0.79375,0 0.79375,0 0,0 0.740834,0.89959 0.661459,2.14313 z"
         id="path419"
         style="stroke-width:0.264583" />
      <path
         d="m 63.897448,124.47949 c 0,0 8.5725,-8.28146 10.927291,-9.94833 2.354792,-1.66688 4.736042,-1.77271 5.741459,-0.39688 1.031874,1.37584 -0.264584,3.91584 -4.312709,6.40292 -4.021666,2.48708 -10.927291,5.92667 -10.927291,5.92667 0,0 0.582083,2.16958 -1.084792,2.38125 -1.666875,0.23812 -3.598333,-2.19604 -2.831042,-3.81 0.79375,-1.64042 2.275417,-0.92604 2.487084,-0.55563 z"
         id="path421"
         style="stroke-width:0.264583" />
    </g>
  </g>
</svg>
