<?xml version="1.0" encoding="UTF-8" standalone="no"?>
<!-- Created with Inkscape (http://www.inkscape.org/) -->

<svg
   width="90"
   height="90"
   viewBox="0 0 23.812501 23.8125"
   version="1.1"
   id="svg623"
   inkscape:version="1.2.2 (732a01da63, 2022-12-09)"
   sodipodi:docname="lights.svg"
   xmlns:inkscape="http://www.inkscape.org/namespaces/inkscape"
   xmlns:sodipodi="http://sodipodi.sourceforge.net/DTD/sodipodi-0.dtd"
   xmlns="http://www.w3.org/2000/svg"
   xmlns:svg="http://www.w3.org/2000/svg">
  <sodipodi:namedview
     id="namedview625"
     pagecolor="#ffffff"
     bordercolor="#000000"
     borderopacity="0.25"
     inkscape:showpageshadow="2"
     inkscape:pageopacity="0.0"
     inkscape:pagecheckerboard="0"
     inkscape:deskcolor="#d1d1d1"
     inkscape:document-units="mm"
     showgrid="false"
     inkscape:zoom="3.1251122"
     inkscape:cx="-38.238627"
     inkscape:cy="60.477829"
     inkscape:window-width="1920"
     inkscape:window-height="1017"
     inkscape:window-x="-8"
     inkscape:window-y="568"
     inkscape:window-maximized="1"
     inkscape:current-layer="layer1" />
  <defs
     id="defs620" />
  <g
     inkscape:label="Layer 1"
     inkscape:groupmode="layer"
     id="layer1"
     transform="translate(-74.389867,-141.71091)">
    <g
       id="g706"
       transform="translate(1.9711458,2.9159002)">
      <path
         d="m 83.332784,149.03987 c 0,0 -1.349375,-1.11125 -2.566458,-0.0529 -1.217084,1.05833 -0.502709,5.68854 2.275416,6.58812 0,0 -2.831041,1.05833 -4.312708,-2.16958 -1.481667,-3.25438 -0.661458,-7.72584 3.598333,-8.49313 4.259792,-0.76729 7.117292,0.44979 7.408333,3.88938 0.291042,3.43958 -1.42875,7.19666 -3.4925,7.17021 0,0 0.02646,-0.71438 0.635,-1.66688 0.608542,-0.9525 1.322917,-3.04271 0.582084,-5.00062 -0.687917,-2.01084 -3.413125,-1.48167 -4.1275,-0.26459 z"
         id="path383"
         style="stroke-width:0.264583" />
      <path
         d="m 84.470492,149.35737 c 0,0 0.15875,0.635 0.502708,0.9525 0.343959,0.3175 0.47625,1.42875 -0.635,1.98438 -1.11125,0.55562 -1.931458,-0.42334 -1.640416,-1.21709 0.3175,-0.79375 0.02646,-1.50812 0.02646,-1.50812 0,0 -0.978958,-0.26458 -1.349375,1.27 -0.370416,1.50812 0.661459,2.46062 1.322917,3.14854 0.687916,0.68792 1.190625,1.5875 1.74625,1.45521 0.555625,-0.15875 1.640416,-1.56104 1.984375,-3.20146 0.396875,-1.71979 -0.185209,-3.46604 -1.957917,-2.88396 z"
         id="path385"
         style="stroke-width:0.264583" />
      <path
         d="m 84.126534,150.04529 c 0,0 0.449791,0.68792 0.238125,1.11125 -0.238125,0.42333 -1.11125,0.50271 -0.978959,0 0.105834,-0.50271 -0.15875,-0.76729 0,-1.11125 0.07937,-0.34396 0.555625,-0.34396 0.740834,0 z"
         id="path387"
         style="stroke-width:0.264583" />
      <path
         d="m 75.712784,155.76029 c 0,0 1.508125,-1.21708 2.566458,-1.34938 0,0 -0.05292,1.66688 -1.137708,2.56646 0,0 -1.058333,-0.34396 -1.42875,-1.21708 z"
         id="path389"
         style="stroke-width:0.264583" />
      <path
         d="m 74.442784,149.99237 c 0,0 1.878542,-0.0265 2.566458,0.635 0,0 -0.899583,1.29646 -2.301875,1.56104 0,0.0265 -0.449791,-0.89958 -0.264583,-2.19604 z"
         id="path391"
         style="stroke-width:0.264583" />
      <path
         d="m 74.389867,146.79091 c 0,0 1.455209,0.52917 2.936875,0.34396 0,0 -0.740833,-1.53458 -1.878541,-2.11666 0,0 -0.79375,0.635 -1.058334,1.7727 z"
         id="path393"
         style="stroke-width:0.264583" />
      <polygon
         points="138.1,46.8 136.6,36.3 129.2,41.6 "
         id="polygon395"
         transform="matrix(0.26458333,0,0,0.26458333,43.142576,132.42404)" />
      <polygon
         points="152.9,42.7 158.6,35.1 148.9,35.1 "
         id="polygon397"
         transform="matrix(0.26458333,0,0,0.26458333,43.142576,132.42404)" />
      <polygon
         points="171.6,47.7 180.6,39.5 172.3,36.5 "
         id="polygon399"
         transform="matrix(0.26458333,0,0,0.26458333,43.142576,132.42404)" />
      <polygon
         points="189.5,54.2 177.5,55.6 185.3,46.3 "
         id="polygon401"
         transform="matrix(0.26458333,0,0,0.26458333,43.142576,132.42404)" />
      <polygon
         points="192.1,75.3 179.3,71.8 193.2,67.6 "
         id="polygon403"
         transform="matrix(0.26458333,0,0,0.26458333,43.142576,132.42404)" />
      <polygon
         points="189.6,87.5 181.5,94.2 177.4,82.1 "
         id="polygon405"
         transform="matrix(0.26458333,0,0,0.26458333,43.142576,132.42404)" />
      <path
         d="m 81.612992,156.63341 c 0,0 5.132917,0.0265 5.529792,0.0529 0.423333,0.0265 0.767291,1.05833 0.05292,1.13771 -0.714375,0.10583 -4.974166,0.10583 -5.714999,0 -0.740834,-0.10583 -0.635,-1.19063 0.132291,-1.19063 z"
         id="path407"
         style="stroke-width:0.264583" />
      <path
         d="m 81.321951,158.64425 c 0,0 4.603749,-0.13229 5.529791,-0.10584 0.926042,0.0529 1.084792,1.03188 0.529167,1.11125 -0.555625,0.0794 -5.159375,0.0265 -5.87375,0 -0.714375,-0.0265 -1.005417,-0.97895 -0.185208,-1.00541 z"
         id="path409"
         style="stroke-width:0.264583" />
    </g>
  </g>
</svg>
