<?xml version="1.0" encoding="UTF-8" standalone="no"?>
<!-- Created with Inkscape (http://www.inkscape.org/) -->

<svg
   width="85"
   height="85"
   viewBox="0 0 22.489582 22.489584"
   version="1.1"
   id="svg1012"
   inkscape:version="1.2.2 (732a01da63, 2022-12-09)"
   sodipodi:docname="status.svg"
   xmlns:inkscape="http://www.inkscape.org/namespaces/inkscape"
   xmlns:sodipodi="http://sodipodi.sourceforge.net/DTD/sodipodi-0.dtd"
   xmlns="http://www.w3.org/2000/svg"
   xmlns:svg="http://www.w3.org/2000/svg">
  <sodipodi:namedview
     id="namedview1014"
     pagecolor="#ffffff"
     bordercolor="#000000"
     borderopacity="0.25"
     inkscape:showpageshadow="2"
     inkscape:pageopacity="0.0"
     inkscape:pagecheckerboard="0"
     inkscape:deskcolor="#d1d1d1"
     inkscape:document-units="mm"
     showgrid="false"
     inkscape:zoom="0.78127806"
     inkscape:cx="-140.15497"
     inkscape:cy="90.876736"
     inkscape:window-width="1920"
     inkscape:window-height="1017"
     inkscape:window-x="-8"
     inkscape:window-y="568"
     inkscape:window-maximized="1"
     inkscape:current-layer="layer1" />
  <defs
     id="defs1009" />
  <g
     inkscape:label="Layer 1"
     inkscape:groupmode="layer"
     id="layer1"
     transform="translate(-92.840876,-124.58573)">
    <g
       id="g1060"
       transform="translate(0.11873424,3.077953)">
      <path
         d="m 114.07217,128.13135 c -1.24354,-1.11125 -5.50334,-3.57187 -10.68917,-3.54541 -5.159375,0 -9.181041,3.20146 -9.181041,3.20146 0,0 -1.508125,0.97895 -1.349375,2.69875 0.15875,1.71979 0.926041,5.23875 2.328333,7.88458 1.402292,2.64583 2.778125,2.40771 5.318123,1.79917 2.51354,-0.60855 5.00063,-0.37042 7.14375,0.34395 2.14313,0.68792 3.28084,0.47625 3.96875,-0.44979 0.68792,-0.92604 2.27542,-4.94771 2.98979,-6.69396 0.71438,-1.74625 0.74084,-4.15395 -0.52916,-5.23875 z m -0.66146,2.96334 c -0.39688,1.87854 -2.48708,7.03791 -2.93688,7.88458 -0.44979,0.84667 -0.68791,0.15875 -3.9952,-0.37042 -3.3073,-0.52916 -6.32355,0 -7.408338,0.4498 -1.084792,0.44979 -1.561042,0.1852 -2.090208,-0.7673 -0.555625,-0.9525 -1.984375,-4.18041 -2.434167,-6.13833 -0.449792,-1.95792 0.185208,-3.09562 1.561042,-3.81 0,0 4.286251,-2.59292 8.810621,-2.14312 4.52438,0.44979 8.89,3.01625 8.49313,4.89479 z"
         id="path441"
         style="stroke-width:0.264583" />
      <path
         d="m 97.165292,130.30094 c 0,0 1.164167,2.35479 1.296458,2.98979 0.15875,0.635 -0.820208,1.24354 -1.375833,0.34396 -0.555625,-0.89959 -1.031875,-1.85209 -1.217083,-2.80459 -0.211667,-0.97895 0.873125,-1.37583 1.296458,-0.52916 z"
         id="path443"
         style="stroke-width:0.264583" />
      <path
         d="m 100.68425,129.32198 c 0,0 0.18521,1.37583 0.23813,2.03729 0.0529,0.635 -0.926046,0.89958 -1.164171,0.0794 -0.211667,-0.82021 -0.47625,-1.79917 -0.396875,-2.43417 0.07937,-0.66146 1.137706,-0.68792 1.322916,0.3175 z"
         id="path445"
         style="stroke-width:0.264583" />
      <path
         d="m 105.10279,128.1049 c 0,0 -0.0794,3.54541 -0.13229,3.91583 -0.0529,0.37042 -1.08479,0.66146 -1.16417,-0.0529 -0.0794,-0.71437 -0.21166,-3.46604 -0.10583,-4.25979 0.10583,-0.79375 1.34938,-0.66146 1.40229,0.39688 z"
         id="path447"
         style="stroke-width:0.264583" />
      <path
         d="m 108.91279,129.63948 c 0,0 -0.23812,0.71437 -0.58208,1.53458 -0.34396,0.79375 -1.34938,0.52917 -1.29646,0 0.0794,-0.52916 0.26458,-2.11666 0.82021,-2.46062 0.55562,-0.37042 1.34937,0.10583 1.05833,0.92604 z"
         id="path449"
         style="stroke-width:0.264583" />
      <path
         d="m 112.03488,130.98885 c 0,0 -0.97896,1.82563 -1.66688,2.56646 -0.68792,0.74084 -1.66687,0.18521 -1.34937,-0.39687 0.3175,-0.58209 1.24354,-2.35479 1.7727,-2.96334 0.55563,-0.60854 1.7198,-0.0529 1.24355,0.79375 z"
         id="path451"
         style="stroke-width:0.264583" />
      <path
         d="m 102.48342,131.1476 1.56104,6.11188 h -2.72521 c 0,0 0.37042,-5.45042 0.47625,-6.0325 0.10583,-0.60854 0.55563,-0.68792 0.68792,-0.0794 z"
         id="path453"
         style="stroke-width:0.264583" />
    </g>
  </g>
</svg>
